<svg width="1200" height="800" viewBox="0 0 1200 800" fill="none" xmlns="http://www.w3.org/2000/svg">
  <rect width="1200" height="800" fill="url(#gradient)"/>
  <defs>
    <linearGradient id="gradient" x1="0%" y1="0%" x2="100%" y2="100%">
      <stop offset="0%" style="stop-color:#667eea;stop-opacity:1" />
      <stop offset="100%" style="stop-color:#764ba2;stop-opacity:1" />
    </linearGradient>
  </defs>
  
  <!-- Hotel building silhouette -->
  <rect x="300" y="200" width="600" height="400" fill="rgba(255,255,255,0.1)" rx="10"/>
  <rect x="320" y="220" width="80" height="60" fill="rgba(255,255,255,0.2)" rx="5"/>
  <rect x="420" y="220" width="80" height="60" fill="rgba(255,255,255,0.2)" rx="5"/>
  <rect x="520" y="220" width="80" height="60" fill="rgba(255,255,255,0.2)" rx="5"/>
  <rect x="620" y="220" width="80" height="60" fill="rgba(255,255,255,0.2)" rx="5"/>
  <rect x="720" y="220" width="80" height="60" fill="rgba(255,255,255,0.2)" rx="5"/>
  
  <!-- More floors -->
  <rect x="320" y="300" width="80" height="60" fill="rgba(255,255,255,0.2)" rx="5"/>
  <rect x="420" y="300" width="80" height="60" fill="rgba(255,255,255,0.2)" rx="5"/>
  <rect x="520" y="300" width="80" height="60" fill="rgba(255,255,255,0.2)" rx="5"/>
  <rect x="620" y="300" width="80" height="60" fill="rgba(255,255,255,0.2)" rx="5"/>
  <rect x="720" y="300" width="80" height="60" fill="rgba(255,255,255,0.2)" rx="5"/>
  
  <rect x="320" y="380" width="80" height="60" fill="rgba(255,255,255,0.2)" rx="5"/>
  <rect x="420" y="380" width="80" height="60" fill="rgba(255,255,255,0.2)" rx="5"/>
  <rect x="520" y="380" width="80" height="60" fill="rgba(255,255,255,0.2)" rx="5"/>
  <rect x="620" y="380" width="80" height="60" fill="rgba(255,255,255,0.2)" rx="5"/>
  <rect x="720" y="380" width="80" height="60" fill="rgba(255,255,255,0.2)" rx="5"/>
  
  <!-- Entrance -->
  <rect x="550" y="500" width="100" height="100" fill="rgba(255,255,255,0.3)" rx="10"/>
  <rect x="570" y="520" width="60" height="80" fill="rgba(255,255,255,0.1)" rx="5"/>
  
  <!-- Palm trees -->
  <ellipse cx="200" cy="550" rx="15" ry="50" fill="rgba(34,197,94,0.6)"/>
  <ellipse cx="1000" cy="550" rx="15" ry="50" fill="rgba(34,197,94,0.6)"/>
  
  <!-- Text overlay -->
  <text x="600" y="100" font-family="serif" font-size="48" fill="white" text-anchor="middle" font-weight="bold">Villa La Sala</text>
  <text x="600" y="140" font-family="sans-serif" font-size="24" fill="rgba(255,255,255,0.8)" text-anchor="middle">Luxury Hotel Experience</text>
</svg>
